<?xml version="1.0" standalone="no"?>
<!DOCTYPE svg PUBLIC "-//W3C//DTD SVG 20010904//EN"
 "http://www.w3.org/TR/2001/REC-SVG-20010904/DTD/svg10.dtd">
<svg version="1.0" xmlns="http://www.w3.org/2000/svg"
 width="512.000000pt" height="512.000000pt" viewBox="0 0 512.000000 512.000000"
 preserveAspectRatio="xMidYMid meet">

<g transform="translate(0.000000,512.000000) scale(0.100000,-0.100000)"
fill="#000000" stroke="none">
<path d="M1595 4740 c-192 -26 -365 -107 -507 -238 -158 -147 -266 -369 -285
-589 l-6 -73 57 0 56 0 0 53 c0 117 53 268 136 393 106 160 267 275 464 331
61 17 124 18 1050 18 l985 0 79 -23 c263 -76 457 -262 549 -527 l32 -90 3
-582 3 -583 -226 0 c-172 0 -227 3 -229 13 -64 207 -109 307 -194 426 -312
439 -862 625 -1374 465 -310 -97 -593 -345 -734 -642 -29 -60 -49 -117 -90
-249 -2 -10 -57 -13 -228 -13 l-225 0 -3 78 -3 77 -53 3 -53 3 3 -928 c3 -927
3 -928 26 -1008 84 -302 302 -536 587 -633 143 -48 122 -47 1145 -47 904 0
970 1 1044 18 205 49 384 159 513 317 68 82 147 240 176 350 l22 85 0 1415 0
1415 -23 85 c-77 292 -288 528 -562 629 -155 57 -105 55 -1130 57 -520 1 -972
-2 -1005 -6z m1079 -1060 c118 -14 201 -35 314 -81 246 -100 475 -319 587
-562 196 -423 108 -932 -218 -1261 -438 -441 -1141 -446 -1582 -11 -293 288
-404 716 -289 1112 124 429 505 751 950 802 100 12 139 12 238 1z m-1337
-1120 l0 -160 -214 0 -213 0 0 160 0 160 213 0 214 0 0 -160z m2873 0 l0 -160
-213 0 -214 0 0 160 1 160 213 0 213 0 0 -160z m-2835 -307 c4 -21 22 -78 41
-128 153 -398 502 -690 921 -771 117 -23 329 -23 446 0 174 34 365 116 503
219 208 155 390 418 452 654 l17 63 228 0 228 0 -3 -582 -3 -583 -32 -90 c-92
-265 -286 -451 -549 -527 l-79 -23 -985 0 c-1104 0 -1027 -5 -1195 74 -199 94
-342 255 -417 471 l-33 95 -3 583 -3 582 230 0 229 0 7 -37z"/>
<path d="M2370 3555 c-342 -68 -628 -307 -755 -630 -86 -219 -86 -511 0 -730
132 -334 435 -578 788 -635 106 -17 309 -8 412 19 44 11 130 45 190 75 209
104 359 254 461 461 74 151 95 237 101 410 4 114 1 158 -15 235 -82 399 -391
709 -787 791 -106 22 -296 24 -395 4z m295 -95 c347 -40 643 -281 754 -615
157 -475 -99 -986 -574 -1144 -292 -97 -610 -40 -851 153 -137 110 -237 253
-293 421 -192 579 225 1168 844 1194 17 0 70 -4 120 -9z"/>
<path d="M2912 3233 c-49 -24 -75 -68 -80 -132 -5 -71 22 -116 90 -149 67 -33
119 -24 174 32 56 55 65 107 32 174 -30 61 -76 92 -137 92 -25 0 -61 -8 -79
-17z m106 -99 c26 -18 28 -50 5 -76 -22 -25 -59 -23 -77 4 -21 30 -20 44 4 68
24 24 38 25 68 4z"/>
<path d="M2448 2917 c-100 -38 -175 -104 -225 -199 -25 -48 -28 -62 -28 -158
0 -100 1 -108 34 -168 41 -75 103 -135 179 -170 49 -23 70 -27 152 -27 82 0
103 4 152 27 79 37 142 98 181 177 29 60 32 74 32 161 0 88 -3 101 -33 162
-37 75 -104 143 -179 178 -60 29 -207 38 -265 17z m218 -112 c17 -7 50 -29 72
-49 142 -129 102 -364 -75 -442 -49 -22 -156 -22 -205 0 -192 84 -221 334 -53
462 69 52 177 64 261 29z"/>
<path d="M1882 2598 c-17 -17 -15 -120 4 -198 8 -36 33 -103 56 -150 33 -69
57 -101 132 -175 73 -73 107 -99 176 -133 98 -48 189 -72 276 -72 66 0 84 11
84 51 0 37 -15 46 -90 54 -193 20 -349 114 -451 269 -52 78 -78 153 -91 256
-6 47 -15 91 -21 98 -12 15 -59 16 -75 0z"/>
<path d="M3552 4193 c-49 -24 -75 -68 -80 -132 -5 -71 22 -116 90 -149 67 -33
119 -24 174 32 56 55 65 107 32 174 -30 61 -76 92 -137 92 -25 0 -61 -8 -79
-17z m106 -99 c26 -18 28 -50 5 -76 -22 -25 -59 -23 -77 4 -21 30 -20 44 4 68
24 24 38 25 68 4z"/>
<path d="M800 3305 l0 -105 55 0 55 0 0 105 0 105 -55 0 -55 0 0 -105z"/>
</g>
</svg>
